<svg xmlns="http://www.w3.org/2000/svg" width="379.448" height="239.314" viewBox="0 0 379.448 239.314">
  <g id="Group_15" data-name="Group 15" transform="translate(-82.8 -63.344)">
    <g id="Group_11" data-name="Group 11" transform="translate(-271 -101)">
      <g id="Group_10" data-name="Group 10">
        <g id="Group_3" data-name="Group 3" transform="translate(351.905 60.432)">
          <g id="Group_1" data-name="Group 1" transform="translate(40.351 123.632)">
            <path id="Path_1" data-name="Path 1" d="M148.292-61.062c.772-99.315-142.54-66.381-151.545-57.891-9.005,8.233-1.029,30.1,7.2,33.191,5.4-1.286,10.549-2.316,15.695-3.088.772,13.894,1.544,30.618,2.316,47.6-9.005-3.6-14.923-8.233-16.209-12.093-1.286,5.66.257,15.18,5.146,24.957C8.325-30.7,4.466-40.221,3.18-47.168c-.772,3.345.772,9.52,1.029,10.549,3.6,12.093,10.549,20.069,18.525,24.957,1.029,34.477,1.8,64.323,2.573,68.7,1.029,0,1.8-2.83,3.087-3.345.515-.257,2.316,1.029,2.316,1.029L33.8,49.831l2.058.257a52.8,52.8,0,0,1,2.058-5.146A11.658,11.658,0,0,1,42.8,41.6s3.6,6.024,5.146,3.708c2.573-4.117,4.374-7.2,4.374-7.2s.772-24.549,1.8-40.5h1.544a168.835,168.835,0,0,0,22.9-1.544c11.321,14.408,23.156,32.419,28.3,52.487l2.316,2.573s5.146-1.286,6.69-1.544,4.631-5.4,4.631-5.4a18.95,18.95,0,0,0,1.286,1.544c3.345-10.806-6.432-43.74-6.432-43.74s10.549,16.724,9.005,40.652c3.6-15.695-.772-37.565-10.549-55.318C132.6-20.925,148.035-35.333,148.292-61.062Zm-20.069-7.2c-1.286,16.981-41.167,33.191-72.3,33.448,1.029-15.952,1.8-33.191,2.058-49.4,0-3.345,0-6.432-.257-9.005C103.523-95.024,129.252-82.674,128.223-68.266Z" transform="translate(7.231 131.011)" fill="#073042"/>
            <path id="Path_2" data-name="Path 2" d="M132.511,22c-.257-2.058,3.087,3.6,2.573.772-30.36-69.211-34.477-115.781-36.793-134.563-1.286-11.321-10.806-14.408-20.583-14.151C71.533-129.8,59.441-130.573,38.857-128,33.969-61.362,6.135,1.333,1.246,15.741,1.973,19.2,12.965,49.554,14.09,55.051c6.947-11.064,15.248-24.3,21.165-35.623,17.5-2.316,45.283-6.175,56.861-4.889a36.721,36.721,0,0,0,5.66-2.058C108.326,34.865,118.36,50.3,123.763,50.3a9.872,9.872,0,0,0,4.117-.515,13.628,13.628,0,0,0,2.573-1.544c.772-.515,0-1.029.772-2.058.515-.515,2.83-1.544,3.345-2.83a28.159,28.159,0,0,0,1.8-8.233C136.371,33.579,132.511,23.8,132.511,22ZM51.722-16.078c5.66-13.636,11.064-28.3,16.467-44.254,5.146,15.18,11.064,30.875,17.239,45.541A293,293,0,0,0,51.722-16.078Z" transform="translate(108.756 151.397)" fill="#4285f4"/>
          </g>
        </g>
      </g>
    </g>
    <path id="Path_130" data-name="Path 130" d="M68.361-111.22a53.263,53.263,0,0,1-2.594,17.7A31.321,31.321,0,0,1,57.68-81.01Q68.361-70.329,68.361-50.494a30.8,30.8,0,0,1-1.373,9.46,70.693,70.693,0,0,1-4.12,9.765A99.15,99.15,0,0,0,58.9-21.352a28.512,28.512,0,0,0-1.221,8.7q0,3.052,3.2,5.645a12.924,12.924,0,0,0,8.392,2.594H82.093L86.06,26.1h-17.7q-21.971,0-32.652-10.375T25.029-12.655A42.754,42.754,0,0,1,27.47-25.624q2.441-7.476,2.746-9,1.831-5.493,3.357-10.833a33.223,33.223,0,0,0,1.526-8.7,13.032,13.032,0,0,0-3.814-9.612,12.312,12.312,0,0,0-9-3.814H8.55V-93.827H22.282a12.312,12.312,0,0,0,9-3.814,13.032,13.032,0,0,0,3.814-9.612q0-4.577-4.272-16.173-5.8-18-5.8-25.938,0-18,10.681-28.227t32.652-10.223h17.7L82.093-157.3H69.276a12.924,12.924,0,0,0-8.392,2.594q-3.2,2.594-3.2,5.645a28.512,28.512,0,0,0,1.221,8.7,48.128,48.128,0,0,0,3.967,8.7,66.953,66.953,0,0,1,4.12,9.918A35.724,35.724,0,0,1,68.361-111.22Z" transform="translate(110.244 264.13) rotate(-11)" fill="#3ddc84"/>
    <g id="Group_14" data-name="Group 14" transform="matrix(0.326, 0.946, -0.946, 0.326, 399.485, -101.813)">
      <path id="Path_131" data-name="Path 131" d="M17.7,76.59a53.26,53.26,0,0,0,2.594,17.7A31.319,31.319,0,0,0,28.378,106.8Q17.7,117.478,17.7,137.312a30.8,30.8,0,0,0,1.373,9.459,70.686,70.686,0,0,0,4.119,9.764,99.145,99.145,0,0,1,3.967,9.917,28.51,28.51,0,0,1,1.221,8.7q0,3.051-3.2,5.645a12.924,12.924,0,0,1-8.391,2.594H3.967L0,213.9H17.7q21.97,0,32.65-10.375t10.68-28.378a42.751,42.751,0,0,0-2.441-12.968q-2.441-7.476-2.746-9-1.831-5.493-3.357-10.832a33.221,33.221,0,0,1-1.526-8.7,13.031,13.031,0,0,1,3.814-9.612,12.311,12.311,0,0,1,9-3.814H77.505V93.983H63.774a12.311,12.311,0,0,1-9-3.814,13.031,13.031,0,0,1-3.814-9.612q0-4.577,4.272-16.172,5.8-18,5.8-25.937,0-18-10.68-28.225T17.7,0H0L3.967,30.514H16.783a12.924,12.924,0,0,1,8.391,2.594q3.2,2.594,3.2,5.645a28.51,28.51,0,0,1-1.221,8.7,48.126,48.126,0,0,1-3.967,8.7,66.947,66.947,0,0,0-4.119,9.917A35.722,35.722,0,0,0,17.7,76.59Z" transform="matrix(0.105, -0.995, 0.995, 0.105, 149.787, 167.168)" fill="#3ddc84"/>
      <g id="Group_13" data-name="Group 13" transform="matrix(0.996, 0.087, -0.087, 0.996, 197.288, 39.436)">
        <path id="Android_Robot" d="M108.108,62.33a6.166,6.166,0,1,1,6.165-6.166,6.166,6.166,0,0,1-6.165,6.166m-68.149,0a6.166,6.166,0,1,1,6.165-6.166,6.166,6.166,0,0,1-6.165,6.166m70.36-37.14L122.641,3.849a2.564,2.564,0,1,0-4.44-2.567L105.724,22.894a77.459,77.459,0,0,0-63.382,0L29.866,1.283a2.564,2.564,0,1,0-4.441,2.563L37.748,25.191A72.756,72.756,0,0,0,0,83.428H148.068a72.764,72.764,0,0,0-37.748-58.237" transform="translate(0 0)" fill="#3ddc84"/>
      </g>
    </g>
  </g>
</svg>
